<svg xmlns="http://www.w3.org/2000/svg" xmlns:xlink="http://www.w3.org/1999/xlink" viewBox="0 0 24.8 31"><defs><style>.cls-1{fill-rule:evenodd;fill:url(#linear-gradient);}</style><linearGradient id="linear-gradient" x1="12.4" x2="12.4" y2="31" gradientUnits="userSpaceOnUse"><stop offset="0" stop-color="#8459ff"/><stop offset="1" stop-color="#3fcfff"/></linearGradient></defs><title>logo</title><g id="Layer_2" data-name="Layer 2"><g id="Layer_1-2" data-name="Layer 1"><g id="Artboard-Copy"><path id="Path-3" class="cls-1" d="M14.91,0A8.78,8.78,0,0,0,17.2,6.36q7.61,5.57,7.6,12.72,0,8-9.13,11.92c4.48-4.65,3.81-6.56-.76-12.4-4.84,2.33-4.06,3.87-3.29,7-1.62,0-3.1,0-3.87-.77,0,1.06,1.85,3.88,3,6.2C4.69,29.41-1.81,19.87.47,19.08a6.66,6.66,0,0,1,5.32.79Q2,5.56,14.91,0Z"/></g></g></g></svg>